<?xml version="1.0" standalone="no"?>
<!DOCTYPE svg PUBLIC "-//W3C//DTD SVG 20010904//EN"
 "http://www.w3.org/TR/2001/REC-SVG-20010904/DTD/svg10.dtd">
<svg version="1.0" xmlns="http://www.w3.org/2000/svg"
 width="150.000000pt" height="150.000000pt" viewBox="0 0 150.000000 150.000000"
 preserveAspectRatio="xMidYMid meet">
<metadata>
Created by potrace 1.16, written by Peter Selinger 2001-2019
</metadata>
<g transform="translate(0.000000,150.000000) scale(0.100000,-0.100000)"
fill="#000000" stroke="none">
<path d="M560 1434 c-180 -38 -357 -178 -438 -344 -55 -112 -72 -184 -72 -300
0 -115 17 -189 69 -295 46 -94 118 -178 205 -240 71 -50 247 -136 321 -155 63
-18 159 -16 210 3 38 15 39 16 16 24 -21 9 -20 10 20 22 159 47 330 188 404
332 22 42 44 75 50 73 6 -3 19 10 30 28 16 27 20 51 20 133 0 89 -4 113 -38
215 -75 231 -180 361 -362 451 -134 66 -288 85 -435 53z m310 -44 c8 -5 11
-10 5 -10 -5 0 -17 5 -25 10 -8 5 -10 10 -5 10 6 0 17 -5 25 -10z m-102 -301
c2 -24 6 -47 10 -51 4 -4 67 -8 141 -9 89 -2 134 -6 137 -14 3 -6 -9 -40 -26
-76 -16 -35 -30 -74 -30 -86 0 -39 -42 -135 -74 -171 -26 -28 -40 -35 -72 -35
-21 0 -57 8 -79 18 l-40 19 57 7 c67 7 101 27 123 70 22 42 58 187 51 205 -10
26 -134 19 -200 -12 -55 -25 -79 -53 -33 -40 12 4 52 12 90 18 88 15 101 5 64
-50 -15 -21 -27 -45 -27 -54 0 -20 -47 -78 -63 -78 -7 0 -29 -5 -50 -11 l-38
-10 3 -62 3 -62 85 -6 c47 -4 98 -12 113 -18 47 -18 82 -13 146 23 l60 34 -5
-31 c-10 -56 -45 -117 -75 -132 -41 -22 -67 -19 -179 21 -78 28 -113 35 -152
32 l-52 -3 -10 39 c-6 26 -5 83 3 164 14 145 10 157 -51 147 -46 -8 -49 4 -8
28 16 10 50 47 75 81 40 56 50 78 71 144 9 28 29 3 32 -39z m-263 -18 c3 -16
1 -49 -5 -72 -7 -24 -15 -97 -19 -164 -6 -106 -10 -127 -34 -167 -33 -57 -103
-118 -133 -118 -29 0 -44 27 -44 80 0 38 1 40 26 34 20 -5 32 0 60 27 19 19
46 53 59 76 23 38 25 52 25 168 0 69 5 135 10 146 16 30 47 24 55 -10z m125
-91 c0 -10 -6 -22 -12 -28 -14 -10 -108 -21 -108 -12 0 3 12 17 28 32 15 14
33 33 40 42 13 16 15 16 33 0 10 -9 19 -25 19 -34z m-276 -26 c45 -7 46 -7 46
-43 0 -49 -44 -94 -86 -89 -28 3 -29 4 -32 71 -3 74 -7 71 72 61z m220 -184
c20 -22 36 -45 36 -51 0 -38 -53 -76 -77 -57 -15 12 -18 148 -4 148 5 0 25
-18 45 -40z m-183 -496 c32 -20 59 -39 59 -41 0 -5 -69 32 -105 56 -51 35 -17
23 46 -15z"/>
<path d="M740 861 c-16 -4 -26 -15 -28 -30 -3 -21 -2 -22 45 -15 59 8 63 10
63 35 0 20 -29 24 -80 10z"/>
<path d="M888 133 c7 -3 16 -2 19 1 4 3 -2 6 -13 5 -11 0 -14 -3 -6 -6z"/>
</g>
</svg>
